<?xml version="1.0"?>
<svg version="1.1" xmlns="http://www.w3.org/2000/svg" width="400px" height="200px" style=""><path fill="#5b5859" d="M51.12,116.8l0-2.38l2.1-0.84l0-13.16l-2.1-0.84l0-2.38l8.54-0.14l0,2.52l-2.1,0.84l0,13.16l2.1,0.84l0,2.38l-8.54,0z M63.70628,116.8l0-2.38l2.1-0.84l0-13.16l-2.1-0.84l0-2.38l6.72-0.14l7.56,12.936l0-9.576l-2.044-0.84l0-2.38l7.98-0.14l0,2.52l-2.1,0.84l0,16.38l-4.676,0l-7.504-12.684l0,9.464l2.184,0.84l0,2.38l-8.12,0z M86.84856,99.58l0-2.38l8.68-0.14l0,2.52l-2.072,0.812l2.576,8.036l0.896,3.444l0.896-3.304l2.772-8.148l-2.128-0.84l0-2.38l8.372-0.14l0,2.52l-2.044,0.84l-5.908,16.38l-4.48,0l-5.656-16.436z M110.04684,116.8l0-2.38l2.1-0.84l0-13.16l-2.1-0.84l0-2.38l8.54-0.14l0,2.52l-2.1,0.84l0,13.16l2.1,0.84l0,2.38l-8.54,0z M136.26912,103.36l-0.644-2.688s-1.316-0.448-3.136-0.448c-2.94,0-4.62,2.184-4.62,6.86c0,4.536,1.82,6.44,4.76,6.44c2.8,0,5.32-1.96,5.32-1.96l1.54,2.52s-2.94,3.052-7.336,3.052c-5.684,0-8.96-3.416-8.96-9.912c0-6.58,3.696-10.5,9.436-10.5c3.388,0,6.524,1.316,6.524,1.316l-0.14,5.32l-2.744,0z M148.4914,113.58l0-13.16l-2.66,0l-0.7,2.66l-2.576,0l0-6.02l16.24,0l0,6.02l-2.604,0l-0.7-2.66l-2.66,0l0,13.16l2.66,0.84l0,2.38l-9.66,0l0-2.38z M168.41368,100.42l0,8.82c0,3.22,0.924,4.48,3.668,4.48c2.968,0,3.612-1.596,3.612-4.9l0-8.4l-2.184-0.84l0-2.38l8.624-0.14l0,2.52l-2.1,0.84l0,8.4c0,5.404-2.072,8.316-8.092,8.316c-5.628,0-7.868-2.492-7.868-7.896l0-8.82l-2.072-0.84l0-2.38l8.596-0.14l0,2.52z M189.65196,110.724l0.42,2.352s1.12,0.588,2.744,0.588c1.792,0,3.388-0.784,3.388-2.268c0-3.276-9.464-1.82-9.464-8.736c0-3.864,3.052-5.936,7.112-5.936c3.164,0,6.16,1.12,6.16,1.12l-0.14,5.096l-2.576,0l-0.7-2.38s-1.26-0.42-2.464-0.42c-1.988,0-2.968,0.868-2.968,1.988c0,3.248,9.436,1.96,9.436,8.54c0,4.2-3.248,6.496-7.56,6.496c-3.164,0-6.244-1.064-6.244-1.064l0-5.376l2.856,0z"/><path fill="#" d=""/></svg>
